<?xml version="1.0" encoding="UTF-8"?>
<svg id="Layer_1" data-name="Layer 1" xmlns="http://www.w3.org/2000/svg" viewBox="0 0 300 300">
  <defs>
    <style>
      .cls-1 {
        fill: #00b6d3;
      }
    </style>
  </defs>
  <path class="cls-1" d="M149.98,164.4c25.24,0,50.48,0,75.72,0,4.73,0,4.88.12,4.88,4.98.02,21.3.03,42.6,0,63.89-.01,7.4-2.09,9.38-9.5,9.39-47.44,0-94.88,0-142.32,0-7.37,0-9.37-2.03-9.37-9.47,0-21.41,0-42.82,0-64.23,0-4.5.06-4.56,4.52-4.56,25.35,0,50.71,0,76.06,0ZM136.92,178.21c-7.4.16-12.63,3.79-15.57,10.45-3.05,6.91-1.64,13.48,3.42,18.78,7.23,7.58,14.95,14.7,22.45,22.02,1.97,1.92,4.23,1.93,6.05.16,8.15-7.95,16.75-15.48,24.13-24.16,5.55-6.54,4.26-17.3-2.09-23-6.58-5.9-16.2-5.81-22.59.43-1.81,1.76-2.98,1.91-4.64-.01-2.91-3.37-6.7-4.84-11.16-4.67Z"/>
  <path class="cls-1" d="M149.87,157.42c-25.14,0-50.29,0-75.43,0-5.38,0-6.18-1.22-3.52-5.94,5.08-9.03,10.35-17.97,15.51-26.95,1.17-2.05,2.91-3.16,5.22-3.18,7.1-.06,14.2-.04,21.31-.05,1.46,0,2.53.59,3.36,1.86,2.62,3.97,5.58,7.65,9.35,10.61,1.53.98,1.14,2.06-.59,2.29-1.79.18-3.6.26-5.4.35-2.12.11-3.87.69-3.85,3.24.02,2.57,1.75,3.12,3.9,3.12,5.41,0,10.82,0,16.24,0,15.55-.09,31.13.17,46.67-.1,1.65-.19,2.81-1.21,2.89-2.82.09-1.75-1.01-3.06-2.78-3.3-2.11-.29-4.27-.25-6.41-.38-.64-.04-1.46.15-1.81-.59-.38-.8.37-1.21.83-1.64,16.96-16.27-.13-12.07,31.68-12.68,3.02-.02,5.12,1.29,6.6,3.87,5.06,8.79,10.21,17.53,15.23,26.34,2.63,4.62,1.78,5.93-3.58,5.94-25.14,0-50.29,0-75.43,0Z"/>
  <path class="cls-1" d="M147.87,67.27c-17.46-.36-32.39,14.84-32.32,32.34.07,17.77,15.07,32.74,32.86,32.77,17.94.04,32.4-14.21,32.46-31.99.81-15.03-11.49-32.68-33-33.12ZM148.23,118.06l-11.58-15.83,11.58,6.71,11.58-6.71-11.58,15.83ZM148.23,106.37l-11.58-6.62,11.58-18.16,11.58,18.16-11.58,6.62Z"/>
</svg>