<?xml version="1.0" encoding="UTF-8"?>
<svg id="Layer_1" data-name="Layer 1" xmlns="http://www.w3.org/2000/svg" viewBox="0 0 300 300">
  <defs>
    <style>
      .cls-1 {
        fill: #00b6d4;
      }
    </style>
  </defs>
  <path class="cls-1" d="M214.3,109.91v80.19c0,.19-.05.37-.09.56l-51.07-38.04,51.12-43.04c.05.09.05.19.05.33Z"/>
  <path class="cls-1" d="M211.21,192.2h-122.43l50.47-37.52,5.65,4.77c1.45,1.26,3.27,1.87,5.09,1.87s3.6-.61,5.09-1.87l5.65-4.77,50.47,37.52Z"/>
  <path class="cls-1" d="M211.63,107.8l-51.91,43.74-.05.05-6.59,5.51c-1.82,1.54-4.44,1.54-6.21,0l-6.59-5.51-.05-.05-51.91-43.74h123.32Z"/>
  <path class="cls-1" d="M136.82,152.62l-51.03,38.04c-.05-.19-.09-.37-.09-.56v-80.19c0-.09,0-.23.05-.33l51.07,43.04Z"/>
</svg>