<?xml version="1.0" encoding="UTF-8"?>
<svg id="Layer_1" data-name="Layer 1" xmlns="http://www.w3.org/2000/svg" viewBox="0 0 300 300">
  <defs>
    <style>
      .cls-1 {
        fill: #00b6d3;
      }
    </style>
  </defs>
  <path class="cls-1" d="M198.83,200.92c0,6.15.09,12.31-.02,18.46-.16,8.86-4.4,14.32-12.94,16.67-12.63,3.49-25.63,3.76-38.57,3.53-10.59-.19-21.26-.42-31.63-3.32-11.06-3.1-14.32-7.28-14.43-18.79-.1-10.31-.31-20.61-.55-30.92-.11-38.82,39.76-47.92,67.69-40,19.06,5.39,30.43,20.17,30.46,39.89,0,4.82,0,9.65,0,14.47Z"/>
  <path class="cls-1" d="M271.7,171.62c0,6.16.04,12.31,0,18.47-.06,8.46-3.2,12.85-11.28,15.59-10.21,3.46-20.93,3.47-31.51,4.31-3.64.29-7.32.15-10.98.1-7.48-.09-9.52-2.11-9.59-9.47-.04-4.49-.12-8.99.02-13.48.66-20.56-8.8-35.25-26.15-45.43-5.43-3.19-5.64-3.85-1.91-9,7.58-10.46,18.18-15.97,30.74-17.49,15.63-1.9,31-1.28,44.43,8.47,18.48,13.75,16.21,27.32,16.23,47.93Z"/>
  <path class="cls-1" d="M75.1,210.15c-10.44-.64-20.97-.53-31.21-3-11.88-2.86-16.15-7.45-15.62-19.26.5-11.13.34-22.3.05-33.45-.38-14.75,6.67-25.3,18.79-32.34,17.56-10.21,36.18-9.99,54.82-3.14,7.17,2.64,12.7,7.85,17.12,14.08,3.67,5.18,3.6,5.39-1.74,8.68-12.35,7.61-21.74,17.53-24.97,32.18-1.88,8.53-1.28,17.22-1.31,25.86-.03,8.92-1.46,10.35-10.43,10.39-1.83,0-3.66,0-5.49,0Z"/>
  <path class="cls-1" d="M175.94,107.52c.03,15.14-11.35,26.75-26.21,26.76-35.02-.81-35.2-52.12.06-53.24,14.24-.24,26.12,11.8,26.15,26.49Z"/>
  <path class="cls-1" d="M221.78,52.65c14.79,0,26.67,11.4,26.84,25.79.17,14.52-12,26.83-26.57,26.85-14.53.02-26.43-11.8-26.46-26.29-.03-14.68,11.56-26.35,26.19-26.36Z"/>
  <path class="cls-1" d="M77.55,52.65c14.54.03,26.31,11.73,26.41,26.25-1.28,34.62-51.62,35.5-52.62-.33,0-15.03,11.05-25.95,26.22-25.92Z"/>
</svg>